<?xml version="1.0" encoding="us-ascii" standalone="no"?><svg xmlns="http://www.w3.org/2000/svg" xmlns:xlink="http://www.w3.org/1999/xlink" contentStyleType="text/css" height="439px" preserveAspectRatio="none" style="width:2315px;height:439px;background:#FFFFFF;" version="1.1" viewBox="0 0 2315 439" width="2315px" zoomAndPan="magnify"><defs/><g><!--class StackImplementor--><g id="elem_StackImplementor"><rect codeLine="4" fill="#F1F1F1" height="163.377" id="StackImplementor" rx="2.5" ry="2.5" style="stroke:#181818;stroke-width:0.5;" width="166" x="1328.5" y="260"/><ellipse cx="1352.5" cy="276" fill="#B4A7E5" rx="11" ry="11" style="stroke:#181818;stroke-width:1.0;"/><path d="M1351.2031,269.8594 L1351.2031,281.4844 Q1351.2031,281.8438 1351.4375,282.0781 Q1351.6563,282.2969 1351.9844,282.2969 Q1352.2813,282.2969 1352.5,282.1094 Q1352.7656,281.875 1352.7656,281.4844 L1352.7656,269.8125 Q1352.7656,269.4219 1352.5156,269.2188 Q1352.2969,268.9688 1351.9688,269 Q1351.6406,269 1351.4375,269.2344 Q1351.2031,269.4688 1351.2031,269.8594 Z " fill="#000000"/><text fill="#000000" font-family="sans-serif" font-size="14" font-style="italic" lengthAdjust="spacing" textLength="114" x="1368.5" y="282.5386">StackImplementor</text><line style="stroke:#181818;stroke-width:0.5;" x1="1329.5" x2="1493.5" y1="292" y2="292"/><line style="stroke:#181818;stroke-width:0.5;" x1="1329.5" x2="1493.5" y1="300" y2="300"/><ellipse cx="1339.5" cy="315.1147" fill="#84BE84" rx="3" ry="3" style="stroke:#038048;stroke-width:1.0;"/><text fill="#000000" font-family="sans-serif" font-size="14" lengthAdjust="spacing" textLength="140" x="1348.5" y="320.1533">push(value : int) : void</text><ellipse cx="1339.5" cy="334.3442" fill="#84BE84" rx="3" ry="3" style="stroke:#038048;stroke-width:1.0;"/><text fill="#000000" font-family="sans-serif" font-size="14" lengthAdjust="spacing" textLength="61" x="1348.5" y="339.3828">pop() : int</text><ellipse cx="1339.5" cy="353.5737" fill="#84BE84" rx="3" ry="3" style="stroke:#038048;stroke-width:1.0;"/><text fill="#000000" font-family="sans-serif" font-size="14" lengthAdjust="spacing" textLength="57" x="1348.5" y="358.6123">top() : int</text><ellipse cx="1339.5" cy="372.8032" fill="#84BE84" rx="3" ry="3" style="stroke:#038048;stroke-width:1.0;"/><text fill="#000000" font-family="sans-serif" font-size="14" lengthAdjust="spacing" textLength="122" x="1348.5" y="377.8418">isEmpty() : boolean</text><ellipse cx="1339.5" cy="392.0327" fill="#84BE84" rx="3" ry="3" style="stroke:#038048;stroke-width:1.0;"/><text fill="#000000" font-family="sans-serif" font-size="14" lengthAdjust="spacing" textLength="106" x="1348.5" y="397.0713">isFull() : boolean</text><ellipse cx="1339.5" cy="411.2622" fill="#84BE84" rx="3" ry="3" style="stroke:#038048;stroke-width:1.0;"/><text fill="#000000" font-family="sans-serif" font-size="14" lengthAdjust="spacing" textLength="111" x="1348.5" y="416.3008">printStack() : void</text></g><!--class Stack--><g id="elem_Stack"><rect codeLine="13" fill="#F1F1F1" height="182.6064" id="Stack" rx="2.5" ry="2.5" style="stroke:#181818;stroke-width:0.5;" width="175" x="900" y="250"/><ellipse cx="965.25" cy="266" fill="#A9DCDF" rx="11" ry="11" style="stroke:#181818;stroke-width:1.0;"/><path d="M963.8906,266.3594 L965.2813,261.3281 L966.6719,266.3594 L963.8906,266.3594 Z M964.1875,259.625 L961.0469,270.9375 Q960.875,271.3281 961.0156,271.6406 Q961.1563,271.9531 961.5,272.0313 Q961.7813,272.0938 962.0938,271.9375 Q962.3438,271.75 962.4844,271.4688 L963.5,267.7969 L967.0313,267.7969 L968.0313,271.4844 Q968.1094,271.8281 968.4219,271.9688 Q968.6719,272.0938 968.9688,272.0313 Q969.25,271.9531 969.4375,271.7031 Q969.6094,271.4375 969.5156,271.0938 L966.3906,259.625 Q966.0625,258.75 965.2813,258.7344 Q964.4844,258.7344 964.1875,259.625 Z " fill="#000000"/><text fill="#000000" font-family="sans-serif" font-size="14" font-style="italic" lengthAdjust="spacing" textLength="36" x="985.75" y="272.5386">Stack</text><line style="stroke:#181818;stroke-width:0.5;" x1="901" x2="1074" y1="282" y2="282"/><polygon fill="none" points="911,292.1147,915,296.1147,911,300.1147,907,296.1147" style="stroke:#B38D22;stroke-width:1.0;"/><text fill="#000000" font-family="sans-serif" font-size="14" lengthAdjust="spacing" textLength="149" x="920" y="302.1533">impl : StackImplementor</text><line style="stroke:#181818;stroke-width:0.5;" x1="901" x2="1074" y1="309.2295" y2="309.2295"/><ellipse cx="911" cy="324.3442" fill="#84BE84" rx="3" ry="3" style="stroke:#038048;stroke-width:1.0;"/><text fill="#000000" font-family="sans-serif" font-size="14" lengthAdjust="spacing" textLength="140" x="920" y="329.3828">push(value : int) : void</text><ellipse cx="911" cy="343.5737" fill="#84BE84" rx="3" ry="3" style="stroke:#038048;stroke-width:1.0;"/><text fill="#000000" font-family="sans-serif" font-size="14" lengthAdjust="spacing" textLength="61" x="920" y="348.6123">pop() : int</text><ellipse cx="911" cy="362.8032" fill="#84BE84" rx="3" ry="3" style="stroke:#038048;stroke-width:1.0;"/><text fill="#000000" font-family="sans-serif" font-size="14" lengthAdjust="spacing" textLength="57" x="920" y="367.8418">top() : int</text><ellipse cx="911" cy="382.0327" fill="#84BE84" rx="3" ry="3" style="stroke:#038048;stroke-width:1.0;"/><text fill="#000000" font-family="sans-serif" font-size="14" lengthAdjust="spacing" textLength="122" x="920" y="387.0713">isEmpty() : boolean</text><ellipse cx="911" cy="401.2622" fill="#84BE84" rx="3" ry="3" style="stroke:#038048;stroke-width:1.0;"/><text fill="#000000" font-family="sans-serif" font-size="14" lengthAdjust="spacing" textLength="106" x="920" y="406.3008">isFull() : boolean</text><ellipse cx="911" cy="420.4917" fill="#84BE84" rx="3" ry="3" style="stroke:#038048;stroke-width:1.0;"/><text fill="#000000" font-family="sans-serif" font-size="14" lengthAdjust="spacing" textLength="111" x="920" y="425.5303">printStack() : void</text></g><!--class OddStack--><g id="elem_OddStack"><rect codeLine="23" fill="#F1F1F1" height="67.2295" id="OddStack" rx="2.5" ry="2.5" style="stroke:#181818;stroke-width:0.5;" width="166" x="354.5" y="65"/><ellipse cx="402.25" cy="81" fill="#ADD1B2" rx="11" ry="11" style="stroke:#181818;stroke-width:1.0;"/><path d="M402.0781,74.4844 Q400.2031,74.4844 399.0469,76.2344 Q397.8594,78.0156 397.8594,81.0156 Q397.8594,84.3906 399.0625,86.1563 Q400.125,87.7813 401.875,87.7813 Q403.5625,87.7813 404.5156,86.875 Q405.5781,85.8594 405.7188,83.625 Q405.7188,83.2031 405.4844,82.9688 Q405.2969,82.7344 404.9531,82.7031 Q404.625,82.7031 404.3906,82.8906 Q404.125,83.125 404.125,83.5156 Q404.0938,84.9063 403.5,85.6406 Q402.9688,86.3438 402.0156,86.3438 Q400.8594,86.3438 400.1406,84.9063 Q399.4219,83.4063 399.4219,80.9844 Q399.4219,78.4375 400.3125,77.0469 Q401.0625,75.9219 402.2031,75.9219 Q402.8594,75.9219 403.3594,76.4688 Q403.9219,77.0781 404.0469,78.1406 Q404.0938,78.8438 404.9219,78.7344 Q405.7031,78.625 405.6563,77.9375 Q405.4688,76.4219 404.7031,75.5469 Q403.7656,74.4844 402.0781,74.4844 Z " fill="#000000"/><text fill="#000000" font-family="sans-serif" font-size="14" lengthAdjust="spacing" textLength="62" x="422.75" y="87.5386">OddStack</text><line style="stroke:#181818;stroke-width:0.5;" x1="355.5" x2="519.5" y1="97" y2="97"/><line style="stroke:#181818;stroke-width:0.5;" x1="355.5" x2="519.5" y1="105" y2="105"/><ellipse cx="365.5" cy="120.1147" fill="#84BE84" rx="3" ry="3" style="stroke:#038048;stroke-width:1.0;"/><text fill="#000000" font-family="sans-serif" font-size="14" lengthAdjust="spacing" textLength="140" x="374.5" y="125.1533">push(value : int) : void</text></g><!--class EvenStack--><g id="elem_EvenStack"><rect codeLine="27" fill="#F1F1F1" height="67.2295" id="EvenStack" rx="2.5" ry="2.5" style="stroke:#181818;stroke-width:0.5;" width="166" x="904.5" y="65"/><ellipse cx="949.75" cy="81" fill="#ADD1B2" rx="11" ry="11" style="stroke:#181818;stroke-width:1.0;"/><path d="M949.5781,74.4844 Q947.7031,74.4844 946.5469,76.2344 Q945.3594,78.0156 945.3594,81.0156 Q945.3594,84.3906 946.5625,86.1563 Q947.625,87.7813 949.375,87.7813 Q951.0625,87.7813 952.0156,86.875 Q953.0781,85.8594 953.2188,83.625 Q953.2188,83.2031 952.9844,82.9688 Q952.7969,82.7344 952.4531,82.7031 Q952.125,82.7031 951.8906,82.8906 Q951.625,83.125 951.625,83.5156 Q951.5938,84.9063 951,85.6406 Q950.4688,86.3438 949.5156,86.3438 Q948.3594,86.3438 947.6406,84.9063 Q946.9219,83.4063 946.9219,80.9844 Q946.9219,78.4375 947.8125,77.0469 Q948.5625,75.9219 949.7031,75.9219 Q950.3594,75.9219 950.8594,76.4688 Q951.4219,77.0781 951.5469,78.1406 Q951.5938,78.8438 952.4219,78.7344 Q953.2031,78.625 953.1563,77.9375 Q952.9688,76.4219 952.2031,75.5469 Q951.2656,74.4844 949.5781,74.4844 Z " fill="#000000"/><text fill="#000000" font-family="sans-serif" font-size="14" lengthAdjust="spacing" textLength="67" x="970.25" y="87.5386">EvenStack</text><line style="stroke:#181818;stroke-width:0.5;" x1="905.5" x2="1069.5" y1="97" y2="97"/><line style="stroke:#181818;stroke-width:0.5;" x1="905.5" x2="1069.5" y1="105" y2="105"/><ellipse cx="915.5" cy="120.1147" fill="#84BE84" rx="3" ry="3" style="stroke:#038048;stroke-width:1.0;"/><text fill="#000000" font-family="sans-serif" font-size="14" lengthAdjust="spacing" textLength="140" x="924.5" y="125.1533">push(value : int) : void</text></g><!--class ArrayStack--><g id="elem_ArrayStack"><rect codeLine="31" fill="#F1F1F1" height="182.6064" id="ArrayStack" rx="2.5" ry="2.5" style="stroke:#181818;stroke-width:0.5;" width="166" x="1105.5" y="7"/><ellipse cx="1149.75" cy="23" fill="#ADD1B2" rx="11" ry="11" style="stroke:#181818;stroke-width:1.0;"/><path d="M1149.5781,16.4844 Q1147.7031,16.4844 1146.5469,18.2344 Q1145.3594,20.0156 1145.3594,23.0156 Q1145.3594,26.3906 1146.5625,28.1563 Q1147.625,29.7813 1149.375,29.7813 Q1151.0625,29.7813 1152.0156,28.875 Q1153.0781,27.8594 1153.2188,25.625 Q1153.2188,25.2031 1152.9844,24.9688 Q1152.7969,24.7344 1152.4531,24.7031 Q1152.125,24.7031 1151.8906,24.8906 Q1151.625,25.125 1151.625,25.5156 Q1151.5938,26.9063 1151,27.6406 Q1150.4688,28.3438 1149.5156,28.3438 Q1148.3594,28.3438 1147.6406,26.9063 Q1146.9219,25.4063 1146.9219,22.9844 Q1146.9219,20.4375 1147.8125,19.0469 Q1148.5625,17.9219 1149.7031,17.9219 Q1150.3594,17.9219 1150.8594,18.4688 Q1151.4219,19.0781 1151.5469,20.1406 Q1151.5938,20.8438 1152.4219,20.7344 Q1153.2031,20.625 1153.1563,19.9375 Q1152.9688,18.4219 1152.2031,17.5469 Q1151.2656,16.4844 1149.5781,16.4844 Z " fill="#000000"/><text fill="#000000" font-family="sans-serif" font-size="14" lengthAdjust="spacing" textLength="69" x="1170.25" y="29.5386">ArrayStack</text><line style="stroke:#181818;stroke-width:0.5;" x1="1106.5" x2="1270.5" y1="39" y2="39"/><rect fill="none" height="6" style="stroke:#C82930;stroke-width:1.0;" width="6" x="1113.5" y="51.1147"/><text fill="#000000" font-family="sans-serif" font-size="14" lengthAdjust="spacing" textLength="57" x="1125.5" y="59.1533">arr : int []</text><line style="stroke:#181818;stroke-width:0.5;" x1="1106.5" x2="1270.5" y1="66.2295" y2="66.2295"/><ellipse cx="1116.5" cy="81.3442" fill="#84BE84" rx="3" ry="3" style="stroke:#038048;stroke-width:1.0;"/><text fill="#000000" font-family="sans-serif" font-size="14" lengthAdjust="spacing" textLength="140" x="1125.5" y="86.3828">push(value : int) : void</text><ellipse cx="1116.5" cy="100.5737" fill="#84BE84" rx="3" ry="3" style="stroke:#038048;stroke-width:1.0;"/><text fill="#000000" font-family="sans-serif" font-size="14" lengthAdjust="spacing" textLength="61" x="1125.5" y="105.6123">pop() : int</text><ellipse cx="1116.5" cy="119.8032" fill="#84BE84" rx="3" ry="3" style="stroke:#038048;stroke-width:1.0;"/><text fill="#000000" font-family="sans-serif" font-size="14" lengthAdjust="spacing" textLength="57" x="1125.5" y="124.8418">top() : int</text><ellipse cx="1116.5" cy="139.0327" fill="#84BE84" rx="3" ry="3" style="stroke:#038048;stroke-width:1.0;"/><text fill="#000000" font-family="sans-serif" font-size="14" lengthAdjust="spacing" textLength="122" x="1125.5" y="144.0713">isEmpty() : boolean</text><ellipse cx="1116.5" cy="158.2622" fill="#84BE84" rx="3" ry="3" style="stroke:#038048;stroke-width:1.0;"/><text fill="#000000" font-family="sans-serif" font-size="14" lengthAdjust="spacing" textLength="106" x="1125.5" y="163.3008">isFull() : boolean</text><ellipse cx="1116.5" cy="177.4917" fill="#84BE84" rx="3" ry="3" style="stroke:#038048;stroke-width:1.0;"/><text fill="#000000" font-family="sans-serif" font-size="14" lengthAdjust="spacing" textLength="111" x="1125.5" y="182.5303">printStack() : void</text></g><!--class LinkedStack--><g id="elem_LinkedStack"><rect codeLine="41" fill="#F1F1F1" height="182.6064" id="LinkedStack" rx="2.5" ry="2.5" style="stroke:#181818;stroke-width:0.5;" width="166" x="1547.5" y="7"/><ellipse cx="1588.15" cy="23" fill="#ADD1B2" rx="11" ry="11" style="stroke:#181818;stroke-width:1.0;"/><path d="M1587.9781,16.4844 Q1586.1031,16.4844 1584.9469,18.2344 Q1583.7594,20.0156 1583.7594,23.0156 Q1583.7594,26.3906 1584.9625,28.1563 Q1586.025,29.7813 1587.775,29.7813 Q1589.4625,29.7813 1590.4156,28.875 Q1591.4781,27.8594 1591.6188,25.625 Q1591.6188,25.2031 1591.3844,24.9688 Q1591.1969,24.7344 1590.8531,24.7031 Q1590.525,24.7031 1590.2906,24.8906 Q1590.025,25.125 1590.025,25.5156 Q1589.9938,26.9063 1589.4,27.6406 Q1588.8688,28.3438 1587.9156,28.3438 Q1586.7594,28.3438 1586.0406,26.9063 Q1585.3219,25.4063 1585.3219,22.9844 Q1585.3219,20.4375 1586.2125,19.0469 Q1586.9625,17.9219 1588.1031,17.9219 Q1588.7594,17.9219 1589.2594,18.4688 Q1589.8219,19.0781 1589.9469,20.1406 Q1589.9938,20.8438 1590.8219,20.7344 Q1591.6031,20.625 1591.5563,19.9375 Q1591.3688,18.4219 1590.6031,17.5469 Q1589.6656,16.4844 1587.9781,16.4844 Z " fill="#000000"/><text fill="#000000" font-family="sans-serif" font-size="14" lengthAdjust="spacing" textLength="77" x="1607.85" y="29.5386">LinkedStack</text><line style="stroke:#181818;stroke-width:0.5;" x1="1548.5" x2="1712.5" y1="39" y2="39"/><rect fill="none" height="6" style="stroke:#C82930;stroke-width:1.0;" width="6" x="1555.5" y="51.1147"/><text fill="#000000" font-family="sans-serif" font-size="14" lengthAdjust="spacing" textLength="124" x="1567.5" y="59.1533">list : LinkedList&lt;int&gt;</text><line style="stroke:#181818;stroke-width:0.5;" x1="1548.5" x2="1712.5" y1="66.2295" y2="66.2295"/><ellipse cx="1558.5" cy="81.3442" fill="#84BE84" rx="3" ry="3" style="stroke:#038048;stroke-width:1.0;"/><text fill="#000000" font-family="sans-serif" font-size="14" lengthAdjust="spacing" textLength="140" x="1567.5" y="86.3828">push(value : int) : void</text><ellipse cx="1558.5" cy="100.5737" fill="#84BE84" rx="3" ry="3" style="stroke:#038048;stroke-width:1.0;"/><text fill="#000000" font-family="sans-serif" font-size="14" lengthAdjust="spacing" textLength="61" x="1567.5" y="105.6123">pop() : int</text><ellipse cx="1558.5" cy="119.8032" fill="#84BE84" rx="3" ry="3" style="stroke:#038048;stroke-width:1.0;"/><text fill="#000000" font-family="sans-serif" font-size="14" lengthAdjust="spacing" textLength="57" x="1567.5" y="124.8418">top() : int</text><ellipse cx="1558.5" cy="139.0327" fill="#84BE84" rx="3" ry="3" style="stroke:#038048;stroke-width:1.0;"/><text fill="#000000" font-family="sans-serif" font-size="14" lengthAdjust="spacing" textLength="122" x="1567.5" y="144.0713">isEmpty() : boolean</text><ellipse cx="1558.5" cy="158.2622" fill="#84BE84" rx="3" ry="3" style="stroke:#038048;stroke-width:1.0;"/><text fill="#000000" font-family="sans-serif" font-size="14" lengthAdjust="spacing" textLength="106" x="1567.5" y="163.3008">isFull() : boolean</text><ellipse cx="1558.5" cy="177.4917" fill="#84BE84" rx="3" ry="3" style="stroke:#038048;stroke-width:1.0;"/><text fill="#000000" font-family="sans-serif" font-size="14" lengthAdjust="spacing" textLength="111" x="1567.5" y="182.5303">printStack() : void</text></g><g id="elem_GMN13"><path d="M2021,66.5 L2021,130.0679 L2308,130.0679 L2308,76.5 L2298,66.5 L2021,66.5 " fill="#FEFFDD" style="stroke:#181818;stroke-width:0.5;"/><path d="M2298,66.5 L2298,76.5 L2308,76.5 L2298,66.5 " fill="#FEFFDD" style="stroke:#181818;stroke-width:1.0;"/><text fill="#000000" font-family="sans-serif" font-size="13" lengthAdjust="spacing" textLength="266" x="2027" y="86.4995">&#44396;&#54788; &#44228;&#52789; &#51064;&#53552;&#54168;&#51060;&#49828; (Bridge&#51032; Implementor).</text><text fill="#000000" font-family="sans-serif" font-size="13" lengthAdjust="spacing" textLength="206" x="2027" y="104.3555">Array&#50752; Linked &#46160; &#44032;&#51648; &#51200;&#51109; &#48169;&#49885;&#51012;</text><text fill="#000000" font-family="sans-serif" font-size="13" lengthAdjust="spacing" textLength="164" x="2027" y="122.2114">&#46041;&#51068;&#54620; &#51064;&#53552;&#54168;&#51060;&#49828;&#47196; &#52628;&#49345;&#54868;</text></g><g id="elem_GMN16"><path d="M588.5,301 L588.5,382.4238 A0,0 0 0 0 588.5,382.4238 L864.5,382.4238 A0,0 0 0 0 864.5,382.4238 L864.5,346 L899.93,342 L864.5,338 L864.5,311 L854.5,301 L588.5,301 A0,0 0 0 0 588.5,301 " fill="#FEFFDD" style="stroke:#181818;stroke-width:0.5;"/><path d="M854.5,301 L854.5,311 L864.5,311 L854.5,301 " fill="#FEFFDD" style="stroke:#181818;stroke-width:0.5;"/><text fill="#000000" font-family="sans-serif" font-size="13" lengthAdjust="spacing" textLength="205" x="594.5" y="320.9995">&#52628;&#49345;&#54868; &#44228;&#52789; (Bridge&#51032; Abstraction).</text><text fill="#000000" font-family="sans-serif" font-size="13" lengthAdjust="spacing" textLength="229" x="594.5" y="338.8555">impl &#54596;&#46300;&#47196; StackImplementor&#47484; has-a.</text><text fill="#000000" font-family="sans-serif" font-size="13" lengthAdjust="spacing" textLength="255" x="594.5" y="356.7114">push() &#50808; &#44277;&#53685; &#50948;&#51076; &#47196;&#51649;&#51008; &#50668;&#44592;&#49436; &#44396;&#54788;&#54616;&#50668;</text><text fill="#000000" font-family="sans-serif" font-size="13" lengthAdjust="spacing" textLength="138" x="594.5" y="374.5674">&#49436;&#48652;&#53364;&#47000;&#49828; &#51473;&#48373;&#51012; &#51228;&#44144;</text></g><g id="elem_GMN19"><path d="M6,75.5 L6,121.2119 A0,0 0 0 0 6,121.2119 L319,121.2119 A0,0 0 0 0 319,121.2119 L319,103 L354.48,99 L319,95 L319,85.5 L309,75.5 L6,75.5 A0,0 0 0 0 6,75.5 " fill="#FEFFDD" style="stroke:#181818;stroke-width:0.5;"/><path d="M309,75.5 L309,85.5 L319,85.5 L309,75.5 " fill="#FEFFDD" style="stroke:#181818;stroke-width:0.5;"/><text fill="#000000" font-family="sans-serif" font-size="13" lengthAdjust="spacing" textLength="268" x="12" y="95.4995">&#54848;&#49688;&#44050;&#47564; push() &#53685;&#44284;&#49884;&#53412;&#45716; &#54596;&#53552;&#47553; &#47196;&#51649; &#44396;&#54788;.</text><text fill="#000000" font-family="sans-serif" font-size="13" lengthAdjust="spacing" textLength="292" x="12" y="113.3555">&#45208;&#47672;&#51648; &#47700;&#49436;&#46300;&#45716; Stack&#51032; &#50948;&#51076; &#44396;&#54788;&#51012; &#44536;&#45824;&#47196; &#49324;&#50857;</text></g><g id="elem_GMN22"><path d="M556,75.5 L556,121.2119 A0,0 0 0 0 556,121.2119 L869,121.2119 A0,0 0 0 0 869,121.2119 L869,103 L904.48,99 L869,95 L869,85.5 L859,75.5 L556,75.5 A0,0 0 0 0 556,75.5 " fill="#FEFFDD" style="stroke:#181818;stroke-width:0.5;"/><path d="M859,75.5 L859,85.5 L869,85.5 L859,75.5 " fill="#FEFFDD" style="stroke:#181818;stroke-width:0.5;"/><text fill="#000000" font-family="sans-serif" font-size="13" lengthAdjust="spacing" textLength="268" x="562" y="95.4995">&#51677;&#49688;&#44050;&#47564; push() &#53685;&#44284;&#49884;&#53412;&#45716; &#54596;&#53552;&#47553; &#47196;&#51649; &#44396;&#54788;.</text><text fill="#000000" font-family="sans-serif" font-size="13" lengthAdjust="spacing" textLength="292" x="562" y="113.3555">&#45208;&#47672;&#51648; &#47700;&#49436;&#46300;&#45716; Stack&#51032; &#50948;&#51076; &#44396;&#54788;&#51012; &#44536;&#45824;&#47196; &#49324;&#50857;</text></g><g id="elem_GMN25"><path d="M1306.5,75.5 L1306.5,95 L1271.74,99 L1306.5,103 L1306.5,121.2119 A0,0 0 0 0 1306.5,121.2119 L1512.5,121.2119 A0,0 0 0 0 1512.5,121.2119 L1512.5,85.5 L1502.5,75.5 L1306.5,75.5 A0,0 0 0 0 1306.5,75.5 " fill="#FEFFDD" style="stroke:#181818;stroke-width:0.5;"/><path d="M1502.5,75.5 L1502.5,85.5 L1512.5,85.5 L1502.5,75.5 " fill="#FEFFDD" style="stroke:#181818;stroke-width:0.5;"/><text fill="#000000" font-family="sans-serif" font-size="13" lengthAdjust="spacing" textLength="133" x="1312.5" y="95.4995">&#48176;&#50676; &#44592;&#48152; &#49828;&#53469; &#44396;&#54788;&#52404;.</text><text fill="#000000" font-family="sans-serif" font-size="13" lengthAdjust="spacing" textLength="185" x="1312.5" y="113.3555">isFull()&#51060; &#51032;&#48120; &#51080;&#45716; &#44396;&#54788;&#51012; &#44032;&#51664;</text></g><g id="elem_GMN28"><path d="M1749,75.5 L1749,95 L1713.72,99 L1749,103 L1749,121.2119 A0,0 0 0 0 1749,121.2119 L1986,121.2119 A0,0 0 0 0 1986,121.2119 L1986,85.5 L1976,75.5 L1749,75.5 A0,0 0 0 0 1749,75.5 " fill="#FEFFDD" style="stroke:#181818;stroke-width:0.5;"/><path d="M1976,75.5 L1976,85.5 L1986,85.5 L1976,75.5 " fill="#FEFFDD" style="stroke:#181818;stroke-width:0.5;"/><text fill="#000000" font-family="sans-serif" font-size="13" lengthAdjust="spacing" textLength="176" x="1755" y="95.4995">&#50672;&#44208; &#47532;&#49828;&#53944; &#44592;&#48152; &#49828;&#53469; &#44396;&#54788;&#52404;.</text><text fill="#000000" font-family="sans-serif" font-size="13" lengthAdjust="spacing" textLength="216" x="1755" y="113.3555">&#46041;&#51201; &#53356;&#44592;&#46972; isFull()&#51008; &#54637;&#49345; false &#48152;&#54872;</text></g><!--link OddStack to Stack--><g id="link_OddStack_Stack"><path codeLine="51" d="M437.5,132.3 C437.5,183.8 437.5,276 437.5,276 C437.5,276 726.46,276 881.74,276 " fill="none" id="OddStack-to-Stack" style="stroke:#181818;stroke-width:1.0;"/><polygon fill="none" points="899.74,276,881.74,270,881.74,282,899.74,276" style="stroke:#181818;stroke-width:1.0;"/></g><!--link EvenStack to Stack--><g id="link_EvenStack_Stack"><path codeLine="52" d="M987.5,132.03 C987.5,162.43 987.5,190.67 987.5,231.98 " fill="none" id="EvenStack-to-Stack" style="stroke:#181818;stroke-width:1.0;"/><polygon fill="none" points="987.5,249.98,993.5,231.98,981.5,231.98,987.5,249.98" style="stroke:#181818;stroke-width:1.0;"/></g><!--link ArrayStack to StackImplementor--><g id="link_ArrayStack_StackImplementor"><path codeLine="53" d="M1271.62,145 C1324.79,145 1383.83,145 1383.83,145 C1383.83,145 1383.83,187.89 1383.83,241.87 " fill="none" id="ArrayStack-to-StackImplementor" style="stroke:#181818;stroke-width:1.0;stroke-dasharray:7.0,7.0;"/><polygon fill="none" points="1383.83,259.87,1389.83,241.87,1377.83,241.87,1383.83,259.87" style="stroke:#181818;stroke-width:1.0;"/></g><!--link LinkedStack to StackImplementor--><g id="link_LinkedStack_StackImplementor"><path codeLine="54" d="M1547.41,168 C1495.78,168 1439.17,168 1439.17,168 C1439.17,168 1439.17,196.83 1439.17,241.83 " fill="none" id="LinkedStack-to-StackImplementor" style="stroke:#181818;stroke-width:1.0;stroke-dasharray:7.0,7.0;"/><polygon fill="none" points="1439.17,259.83,1445.17,241.83,1433.17,241.83,1439.17,259.83" style="stroke:#181818;stroke-width:1.0;"/></g><!--reverse link Stack to StackImplementor--><g id="link_Stack_StackImplementor"><path codeLine="55" d="M1087.1,342 C1161.42,342 1255.31,342 1328.34,342 " fill="none" id="Stack-backto-StackImplementor" style="stroke:#181818;stroke-width:1.0;"/><polygon fill="none" points="1075.1,342,1081.1,346,1087.1,342,1081.1,338,1075.1,342" style="stroke:#181818;stroke-width:1.0;"/></g><!--link GMN13 to StackImplementor--><g id="link_GMN13_StackImplementor"><path d="M2164.5,130.58 C2164.5,196.7 2164.5,342 2164.5,342 C2164.5,342 1690.43,342 1494.6,342 " fill="none" id="GMN13-StackImplementor" style="stroke:#181818;stroke-width:1.0;stroke-dasharray:7.0,7.0;"/></g><!--SRC=[pPHTIzjG6CVlyoaUs4tBg1zW3C61Wu6mYrsENHpRKnjCav14GRP1gc58bKstYgaanK5T9tGiqtRBHJzHpZdVOUVa935JA-oklIbzNixp-pyljJTLtKGMQeEcwjZPCJ4ObjCo54NL7MmrKHt3AmVLDr-qJGstiUuOrbi5-ESnc5jsgxADj2qCJu27L_dNjg4sShTXLghIarcSEnRLNcsRpavgNJSC3IEzy3pVqhHx7AR5qrEaIb7mlQAWTTknKDs1kePiMp9Bq4UWSdOUUbl78igGz2yRZPA01n2BZDLjhFzdoefbePrIJWsGPSbWUFrcSPkpfkgRkF4FkARQ3e-JdZN-uodFNrv42VbaeLPxjomtKYbcLpRUJ0UMbd9hUNbBRPWJ8Nr6pL8tMaxjhb_H3GSBjM0qxp-EP3fclWV9jKVZAT0mPbx4FleqdD3k42hFBBMnWMdeGocnkfIcfloqxsP30N9y14daqf4BzDobWmiWqIKz26defV7aKv-6CtOIt2v3ldBJxnxTwx1-Jy5w0mHs1g_XfbFGf-yKeJbrYN8b-uzG3JsZJFyPs8b7lWIYpkqca8iPj91TGp8wtQGgq7xC7v-o3xmbWKS77l1SEkhGa6ix7ITnHBqWwnqxyRb9ada1YGzPPq86lcWV7HwJwodNpniI9B-YUThobKaVONsNxlj9z9cC3dCU3f9Sp-X1m7Q7fDiJUdW3oQYJSMKeKWFPzSdtM8o1NFO44bVESz8AeaUP8faYu98_CJbqqodiZkdPvJpCOekbs56uO9pf5GZGcykIXQA8daw0Jur4_DdkaEs5-RDNasnDiYld6ydNqoS_Ow23VS5JgY-M-sXkrTAvoWQTHibL1EJRM9JinWy3YEiuxm3hYEqYuQn4vF8-_k0h3qsasPZByLdVly7u2m00]--></g></svg>